<?xml version="1.0" encoding="UTF-8" standalone="no"?>
<svg
   version="1.0"
   preserveAspectRatio="xMidYMid"
   viewBox="0 0 251.3 663.48199"
   id="human-armor-locations-front-svg"
   xmlns:inkscape="http://www.inkscape.org/namespaces/inkscape"
   xmlns="http://www.w3.org/2000/svg"
   xmlns:svg="http://www.w3.org/2000/svg">
  <path
     d="m 63.008887,594.73811 c -6.9,0 -8.00108,0.70079 -9.10108,5.80078 -0.3,1.7 -1.89951,4.5 -3.49951,6 -1.6,1.6 -4.19932,5.79991 -5.79932,9.39991 -1.89999,4.19999 -3.70058,6.79931 -5.10058,7.29931 -1.2,0.3 -2.10059,1 -2.10059,1.5 0,0.5 -2,2.30049 -4.5,4.00049 -4.59999,3.2 -7.90019,7.90059 -6.70019,9.60059 1.3,1.79999 6.10019,4.39892 8.20019,4.39892 1.1,0 2.79981,0.40088 3.79981,0.90088 7.09999,3.6 8.70117,3.8998 11.70117,2.29981 1.7,-0.8 4.49883,-3.0003 6.29883,-4.8003 1.79999,-1.9 3.70117,-3.3999 4.20117,-3.3999 0.6,0 0.99902,-0.7999 0.99902,-1.8999 0,-1 0.70039,-2.39961 1.40039,-3.09961 0.8,-0.6 2.0001,-3.60059 2.6001,-6.60059 0.7,-3.09999 2.29981,-6.80049 3.7998,-8.50049 2.2,-2.69999 2.60001,-4.29981 3,-11.2998 0.4,-6.79999 0.10069,-8.49942 -1.29931,-9.89941 -1.2,-1.2 -3.39991,-1.70069 -7.8999,-1.70069 z"
     id="foot_right_front"
     inkscape:label="foot_right_front" />
  <path
     d="m 141.14512,599.75081 c -4.0625,0.0875 -7.88682,0.4373 -8.23682,0.9873 -2.3,3.6 -3.9e-4,35.70079 3.09961,43.30078 1.5,4 16.6001,7.7 17.6001,4.5 0.4,-1 1.10029,-1 3.30029,0 2.5,1.2 3.1001,1.09932 4.1001,-0.20068 0.6,-0.9 1.90039,-1.59961 2.90039,-1.59961 0.9,0 1.90019,-0.8999 2.20019,-1.8999 0.3,-1.1 1.29942,-2.09942 2.39942,-2.39942 1,-0.3 1.8999,-0.9 1.8999,-1.5 0,-0.5 -3.10049,-4.30127 -7.00049,-8.30127 -4.79999,-5.09999 -7.09961,-8.4999 -7.59961,-10.8999 -0.4,-1.9 -1.30058,-4.9002 -2.10058,-6.70019 -0.7,-1.8 -1.29932,-5.69971 -1.29932,-8.69971 0,-4 -0.39961,-5.5 -1.59961,-6 -1.3,-0.5 -5.60108,-0.6749 -9.66357,-0.5874 z"
     id="foot_left_front"
     inkscape:label="foot_left_front" />
  <path
     d="m 54.307707,500.73909 c -0.4,0 -1.69892,2.09922 -2.89892,4.69922 -2.8,6.29999 -3.80059,23.69962 -2.10059,37.59961 1.2,9.89999 1.80069,13.80118 4.70069,29.70117 0.7,4.09999 1.29931,9.39971 1.29931,11.69971 0.1,6.09999 1.89981,7.40009 9.79981,7.10009 l 6.60058,-0.30029 0.09961,-10.5 c 0.2,-8.39999 0.70049,-11.60049 2.50049,-16.00049 4.9,-11.79999 6.39912,-15.79903 9.59912,-24.99902 1.8,-5.2 3.50059,-10.90098 3.60059,-12.50098 0.4,-4.29999 -1.19951,-25.5 -1.99951,-25.5 -0.3,0 -2.40108,0.7 -4.60108,1.5 -5.89999,2.1 -16.09991,1.90049 -21.3999,-0.49951 -2.4,-1.1 -4.7002,-1.99951 -5.2002,-1.99951 z"
     id="shin_right_front"
     inkscape:label="shin_right_front" />
  <path
     d="m 140.05234,501.81575 c -2.03808,0.0713 -3.00683,2.11035 -4.44433,6.92285 -0.6,1.9 -1.99961,6.1003 -3.09961,9.30029 -1.9,5.5 -1.89951,6.19903 -0.49951,14.49903 1.29999,7.79999 2.5999,14.1005 6.3999,31.00048 1.2,5.4 0.79961,10.40021 -1.40039,15.7002 -2.1,4.9 -4.59961,13.20039 -4.59961,14.90039 0,2.1 3.09952,2.69941 12.49951,2.39941 7.69999,-0.3 7.9998,-0.39931 8.2998,-2.79931 1.2,-11.29999 3.7006,-19.0005 11.10059,-34.00049 1.7,-3.6 3.6001,-8.80049 4.1001,-11.50049 0.5,-2.8 2.09912,-8.2 3.59912,-12 2.2,-5.89999 2.60049,-8.49952 2.50049,-16.99951 0,-5.49999 -0.3002,-11.2002 -0.7002,-12.7002 l -0.60058,-2.79931 -4.09864,2.20019 c -3.89999,2 -4.60069,1.99981 -12.20068,0.79981 -4.4,-0.7 -9.69971,-2.10108 -11.69971,-3.10108 -2.32499,-1.19999 -3.9334,-1.86503 -5.15625,-1.82226 z"
     id="shin_left_front"
     inkscape:label="shin_left_front" />
  <path
     d="m 84.692967,453.1009 c 1.53437,0.18125 3.09033,0.56319 4.71533,1.13819 4.7,1.6 11.500103,6.69912 13.100103,9.59912 1.2,2.3 -1.00001,10.20088 -4.500003,15.90088 -3.5,5.79999 -5.50079,9.3002 -7.30078,12.70019 -1.3,2.6 -2.89923,3.69981 -7.69922,5.29981 -12.39999,4.29999 -12.69981,4.29951 -18.79981,1.99951 -3.19999,-1.2 -6.6999,-2.89981 -7.8999,-3.7998 l -2.10059,-1.8003 2.29981,-3.89941 c 5.59999,-9.69999 5.79971,-10.40079 5.69971,-19.30078 0,-9.49999 -0.19902,-8.99991 8.00097,-13.89991 5.475,-3.22499 9.88126,-4.48124 14.48438,-3.9375 z"
     id="knee_right_front"
     inkscape:label="knee_right_front" />
  <path
     d="m 156.60801,452.03889 5.40088,2.69971 c 2.99999,1.5 6.79902,4.00049 8.49902,5.50049 l 3.10107,2.69971 -0.70019,10.8999 c -0.4,7.19999 -0.30049,12.69961 0.49951,16.59961 1.1,5.19999 1.10049,5.8998 -0.49951,6.7998 -1,0.5 -3.1003,2.10098 -4.80029,3.50098 -2.5,2.1 -4.0005,2.4998 -8.50049,2.2998 -3,-0.1 -7.19913,-1.10019 -9.59912,-2.20019 -2.3,-1.2 -4.7002,-2.10059 -5.2002,-2.10059 -0.6,0 -1.9,-0.59892 -3,-1.39892 -1.4,-1.1 -2.00049,-3.10079 -2.50049,-8.80079 -0.3,-3.99999 -1.5001,-10.59971 -2.6001,-14.6997 -1.09999,-4.1 -1.8,-8.3003 -1.5,-9.3003 0.6,-2.39999 9.99962,-8.50029 16.59961,-10.80029 z"
     id="knee_left_front"
     inkscape:label="knee_left_front" />
  <path
     d="m 66.933197,343.88801 c -2.05,-0.075 -3.62549,0.20108 -5.12549,0.85108 -1.99999,0.8 -2.29892,1.89923 -2.89892,12.19922 -1.5,25.19997 0.89951,90.89971 3.49951,95.6997 1.3,2.5 1.19932,2.50069 5.79932,0.20069 10.99999,-5.5 21.40128,-4.99961 30.80127,1.40039 2.799993,1.9 5.300093,3.49951 5.600093,3.49951 1.2,0 1.99873,-6.09981 2.19873,-15.7998 0.1,-7.7 0.60128,-10.50069 2.30127,-13.70069 2.4,-4.59999 6.29883,-19.99942 6.29883,-24.89941 0,-1.8 0.90059,-5.90069 2.10059,-9.20069 4.39999,-12.49998 5.89931,-21.69883 4.29931,-25.79882 -0.3,-0.9 -5.19883,-4.10118 -10.79882,-7.20118 -5.5,-3.19999 -10.80079,-6.30009 -11.800793,-7.10009 -1.99999,-1.8 -16.4003,-6.99893 -24.30029,-8.89893 -3.39999,-0.75 -5.92461,-1.17598 -7.97461,-1.25098 z"
     id="thigh_right_front"
     inkscape:label="thigh_right_front" />
  <path
     d="m 182.32187,353.90022 c -0.95156,0.0516 -1.93857,0.16338 -2.91357,0.33838 -0.8,0.2 -4.9,0.8 -9,1.5 -7.49999,1.2 -13.10049,2.60049 -16.00049,4.00049 -0.9,0.4 -3.09951,1.09892 -4.99951,1.39892 -4.8,1 -18.20069,5.60127 -19.70068,6.80127 -2.1,1.7 -1.49883,21.29934 1.20117,43.29932 1.4,10.99999 2.79922,25.30069 3.19922,31.70068 0.3,6.4 0.90078,12.19942 1.30078,12.89942 0.6,0.9 1.6002,0.60058 3.70019,-0.89942 4.4,-3.09999 12.89952,-6.20068 16.99952,-6.20068 3.39999,0 13.70039,4.19961 14.90039,6.09961 1.19999,2 2.39941,0.70107 2.39941,-2.89893 0.1,-1.99999 0.79961,-5.50068 1.59961,-7.70068 4.1,-10.49999 10.6,-38.60001 12,-52.5 2.7,-25.39997 3.10107,-35.2002 1.60107,-36.7002 -0.9,-0.89999 -3.43242,-1.29287 -6.28711,-1.13818 z"
     id="thigh_left_front"
     inkscape:label="thigh_left_front" />
  <path
     d="m 23.975187,337.32698 c -2.53593,0.0984 -2.6663,0.66211 -2.9663,2.91211 -1.5,10.69999 -2.70108,15.6999 -4.601081,19.8999 l -2.2998,4.69922 3.50097,3.70019 c 2.000001,2 4.199911,5.49962 4.899911,7.59961 0.8,2.1 2.39912,4.50127 3.59912,5.30127 1.9,1.3 2.60049,1.19971 5.50049,-0.30029 1.79999,-1 5.09931,-2.00088 7.29931,-2.40088 3.8,-0.5 4.00098,-0.69951 3.50098,-3.49951 -0.4,-2.9 -0.40039,-6.79962 0.0996,-19.59961 0.2,-4.49999 -0.29981,-6.60049 -2.29981,-10.00049 -1.4,-2.4 -3.60068,-5.30029 -4.70068,-6.30029 -1.6,-1.5 -3.69913,-1.99951 -8.09912,-1.99951 -1.475,-0.025 -2.58828,-0.0445 -3.4336,-0.0117 z"
     id="hand_right_front"
     inkscape:label="hand_right_front" />
  <path
     d="m 222.27109,331.4134 c -2.28749,0.075 -3.26328,0.3251 -3.36328,0.7251 -0.2,0.6 -0.59941,3.10049 -0.89941,5.50049 -0.4,2.4 -1.6001,6.19942 -2.6001,8.39941 l -1.99951,4.1001 2.6001,7.8999 c 1.39999,4.3 2.39912,8.7002 2.09912,9.7002 -0.3,1.1 0.10019,2.59951 0.70019,3.49951 1.1,1.5 1.30049,1.60107 2.50049,0.10108 1,-1.2 1.2002,-3.60099 0.7002,-9.50098 -0.7,-8.99999 0.1001,-10.39941 5.60009,-9.89941 l 3.29883,0.30029 0.30029,11.39941 c 0.3,11.19999 0.19981,11.5 -2.20019,13.5 -2.3,1.9 -2.39971,2.3004 -1.19971,4.40039 l 1.30078,2.39942 2.59864,-3.39991 c 3.79999,-4.69999 4.10108,-4.89932 9.10107,-8.79931 4.6,-3.5 4.59961,-3.50059 4.59961,-9.60059 0,-4.89999 -0.50049,-6.89981 -2.50049,-9.7998 -3.69999,-5.5 -6.49951,-11.3 -6.49951,-13.5 0,-2.2 -2.00039,-7.1001 -2.90039,-7.1001 -5.35,-0.3 -8.94932,-0.4002 -11.23682,-0.3252 z"
     id="hand_left_front"
     inkscape:label="hand_left_front" />
  <path
     d="m 19.346287,247.7386 c -0.5625,0.075 -1.18848,0.49971 -1.438481,1.19971 -3.29999,10.39999 -3.09941,32.49983 0.600591,63.7998 2,17.89998 4.00059,21.50078 11.10058,20.80078 3.1,-0.3 3.29903,-0.60029 3.99903,-4.80029 0.4,-2.5 1.20068,-11.59981 1.70068,-20.2998 0.8,-13.09999 1.6,-17.59953 4.5,-27.49952 3.8,-12.79998 5.1001,-20.90068 4.1001,-24.20068 -0.6,-1.9 -1.2003,-2.00039 -7.80029,-1.40039 -7,0.5 -7.30089,0.4999 -11.40088,-2.6001 -2.4,-1.7 -4.29932,-3.6001 -4.29932,-4.1001 0,-0.7 -0.49951,-0.97441 -1.06201,-0.89941 z"
     id="forearm_right_front"
     inkscape:label="forearm_right_front" />
  <path
     d="m 237.7706,257.73176 c 0.675,-0.39375 2.13809,0.95655 3.03809,3.20655 1.1,2.59999 1.19912,7.4005 0.59912,22.00049 -0.4,10.19999 -0.99892,18.99961 -1.39892,19.5996 -0.3,0.5 -1.3002,6.1003 -2.2002,12.3003 -0.8,6.29999 -2.09971,11.69961 -2.69971,12.09961 -1.4,0.9 -10.30039,1.00068 -13.40039,0.20068 -2.19999,-0.6 -2.2998,-1.09981 -2.2998,-9.7998 0,-9.39999 -3.50059,-32.9006 -6.60059,-44.10059 -2.6,-9.59999 -3.19989,-8.89951 8.6001,-9.49951 7.79999,-0.4 11.29932,-0.99981 13.29932,-2.29981 1.49999,-0.9 2.70117,-2.20117 2.70117,-2.70117 0,-0.55 0.13681,-0.8751 0.36181,-1.00635 z"
     id="forearm_left_front"
     inkscape:label="forearm_left_front" />
  <path
     d="m 33.985937,215.62483 c -0.70938,0.0891 -1.50206,0.26416 -2.47705,0.51416 -4.3,1.1 -4.40108,1.19962 -6.10108,7.59961 -1,3.6 -2.4999,8.19971 -3.3999,10.19971 -2.6,6.09999 -2.10009,8.09971 3.3999,13.1997 5.4,5.1 8.4005,5.70069 14.50049,3.20069 2.8,-1.2 3.49951,-2.10079 3.49951,-4.30078 0,-3.3 2.10079,-11.29893 4.30078,-16.39893 1.4,-3.4 1.4001,-3.89981 -0.3999,-6.7998 -1,-1.6 -4.00059,-4.10088 -6.60059,-5.40088 -3.22499,-1.575 -4.59404,-2.08067 -6.72216,-1.81348 z"
     id="elbow_right_front"
     inkscape:label="elbow_right_front" />
  <path
     d="m 218.8082,222.73811 c -1.2,0 -7.29951,6.29981 -9.49951,9.79981 l -2.69971,4.30078 1.89991,4.8999 c 0.99999,2.8 1.8999,6.30029 1.8999,7.80029 0,1.5 0.49902,4.3003 0.99902,6.3003 1,3.59999 1.10079,3.70009 7.30078,4.10009 3.4,0.3 7.69952,0.0986 9.49951,-0.40136 4.2,-1.2 10.80079,-7.59932 10.30079,-10.29932 -0.1,-1.1 -2.60089,-6.8002 -5.40088,-12.7002 -4.9,-10.39998 -5.19913,-10.80029 -9.59912,-12.30029 -2.4,-0.8 -4.60069,-1.5 -4.70069,-1.5 z"
     style="display:inline"
     id="elbow_left_front"
     inkscape:label="elbow_left_front" />
  <path
     d="m 39.435157,172.86751 c -2.99414,0.15527 -4.06495,1.85791 -4.62745,5.67041 -0.4,2.59999 -1.29951,5.60019 -1.99951,6.70019 -2.2,3.3 -6.80009,24.50069 -5.6001,25.70069 0.6,0.59999 4.40011,1.0997 8.6001,1.1997 7,0.1 7.7003,0.29991 10.8003,3.3999 1.89999,1.7 3.70048,3.20069 4.00048,3.20069 1.1,0 6.8,-13.20088 7.5,-17.40088 0.3,-2.2 1.7,-6.89893 3,-10.39893 l 2.29981,-6.40136 -3.20069,-3 c -4.79999,-4.5 -7.10049,-5.79893 -13.00048,-7.39893 -3.4875,-0.9 -5.97598,-1.36465 -7.77246,-1.27148 z"
     id="upperArm_right_front"
     inkscape:label="upperArm_right_front" />
  <path
     d="m 214.41367,175.8221 c -0.38535,-0.003 -0.81768,0.004 -1.30517,0.0161 -5.4,0.1 -11.7002,1.9999 -15.7002,4.8999 -1.7,1.2 -4.29932,2.50039 -5.79932,2.90039 -3.49998,1 -3.40076,3.80061 0.19922,14.10059 1.5,4.09998 3.10059,8.59902 3.60059,9.99902 0.9,2.7 5.09922,13.2008 7.69922,19.30078 l 1.59961,3.7002 4.90136,-5.50049 c 4.6,-5.09998 5.29885,-5.50049 9.29883,-5.50049 2.4,0 5.50049,0.40049 7.00049,1.00049 3.7,1.4 4.40068,-1.29961 1.70068,-6.09961 -1.2,-2.1 -2.20019,-4.90068 -2.20019,-6.20068 0,-1.4 -0.60039,-4.29953 -1.40039,-6.49951 -0.8,-2.2 -1.70059,-6.2004 -2.10059,-8.9004 -0.3,-2.59997 -1.19951,-6.39979 -1.99951,-8.29979 -0.7,-1.9 -1.5999,-4.70029 -1.8999,-6.30029 -0.525,-2.1 -0.89729,-2.59295 -3.59473,-2.61621 z"
     style="display:inline"
     id="upperArm_left_front"
     inkscape:label="upperArm_left_front" />
  <path
     d="m 63.468847,116.8929 c -1.80469,-0.21094 -4.41007,0.97119 -10.56006,4.34619 -9.59999,5.29999 -12.70049,9.09884 -16.00049,19.79883 -1.9,5.89999 -2.50049,10.00069 -2.50049,16.70068 0,10.59999 0.90108,12 7.60108,12 6.59999,0 13.6,1.99961 16.5,4.59961 3.79999,3.6 4.8999,3.10097 4.8999,-2.49902 0,-2.7 0.69961,-6.5001 1.59961,-8.6001 0.8,-2 1.6999,-7.20088 1.8999,-11.40088 0.2,-4.2 0.79932,-11.29942 1.29932,-15.89941 1,-8.7 -0.29962,-16.59991 -3.09961,-18.39991 -0.525,-0.35 -1.0376,-0.57568 -1.63916,-0.64599 z"
     id="shoulder_right_front"
     inkscape:label="shoulder_right_front" />
  <path
     d="m 186.1085,120.33821 c -0.1,0.2 -0.2,6.00049 0,13.00049 0.2,8.69999 0.80029,13.40029 1.80029,15.30029 2.2,4 6.49951,17.39942 6.49951,20.39941 0,1.4 -0.49971,3.8002 -1.19971,5.2002 -1.6,3.6 -0.50058,4 3.89942,1.5 2.39999,-1.3 7.40088,-2.60029 12.90088,-3.30029 l 8.89892,-1.19971 -0.0996,-10.1001 c 0,-9.99999 -0.1003,-10.29952 -4.80029,-19.99951 -5.6,-11.69999 -6.49903,-12.8001 -12.99902,-16.1001 -4.6,-2.39999 -14.2004,-5.40068 -14.90039,-4.70068 z"
     id="shoulder_left_front"
     inkscape:label="shoulder_left_front" />
  <path
     d="m 128.27646,323.10921 c 3.5187,0.1604 7.61925,1.46426 11.03174,3.62988 3.4,2.2 5.80049,4.99912 8.50049,9.59912 3.9,6.89998 6.59912,13.50039 6.59912,16.40039 0,1.8 -4.79904,4.30039 -11.49902,5.90039 -2.2,0.6 -6.70088,1.9 -9.90088,3 -3.3,1.2 -6.39902,2.09912 -6.99902,2.09912 -1.4,0 -17.00108,-9.19902 -19.60108,-11.49902 -1.1,-1 -1.99951,-2.60059 -1.99951,-3.60059 0,-2.2 5.80039,-11.59982 8.90039,-14.2998 1.1,-1.1 2.09912,-2.39961 2.09912,-3.09961 0,-1.5 4.90098,-6.10039 8.00098,-7.40039 0.975,-0.425 2.13125,-0.6624 3.39844,-0.72803 0.47519,-0.0246 0.96656,-0.0244 1.46923,-0.001 z"
     style="display:inline"
     id="groin"
     inkscape:label="groin" />
  <path
     d="m 132.07041,212.76253 c -1.47611,0.009 -2.54942,0.20068 -2.96191,0.57568 -0.4,0.4 -3.89991,1.1999 -7.89991,1.8999 -3.99998,0.7 -8.90029,1.80049 -10.80029,2.50049 -23.099963,8.09998 -28.900493,10.29982 -31.000493,11.2998 -2.4,1.2 -2.49961,1.69973 -3.09961,13.19971 -0.4,7.29998 -1.20019,13.60049 -2.20019,16.00049 -1,2.3 -1.59922,7.09943 -1.69922,11.39941 0,5.8 -0.70069,9.40051 -3.20069,16.00049 -1.69998,4.7 -3.69931,9.49961 -4.29931,10.59961 -0.7,1.1 -1.4999,6.90051 -1.8999,13.00049 -0.3,5.99998 -0.90118,14.79961 -1.20118,19.59961 -0.8,10.19998 0.20012,11.90039 7.1001,11.90039 5.6,0 14.30049,1.6999 17.50049,3.3999 2.6,1.4 7.40031,2.90049 12.30029,4.00049 2.400003,0.6 2.699713,0.3001 2.699713,-1.8999 0,-2.7 3.30049,-8.40119 8.50049,-14.70117 1.6,-2.1 4.19971,-5.29971 5.69971,-7.19971 4.19998,-5.1 14.00039,-7.09969 20.90039,-4.19971 9.49998,4 16.39933,12.60061 20.79931,26.10059 1.1,3.2 2.4,6.0999 3,6.3999 0.6,0.4 4.8003,0.099 9.3003,-0.50098 4.59998,-0.7 10.7999,-1.29931 13.8999,-1.29931 2.99998,-0.1 6.00019,-0.60078 6.70019,-1.30078 1.5,-1.5 1.5,-12.99983 0,-24.79981 -0.5,-4.69998 -1.00088,-10.49902 -0.90088,-12.99902 0.1,-6 -2.59931,-21.60088 -4.29931,-24.90088 -1.3,-2.4 -3.20078,-17.89916 -4.30078,-35.09912 -0.2,-4.4 0.1005,-10.5008 1.00048,-14.80078 1.2,-6.4 1.2,-7.49932 0,-8.79932 -0.79998,-0.8 -1.90048,-1.40039 -2.50048,-1.40039 -0.6,0 -2.89875,-0.7999 -5.19873,-1.8999 -2.3,-1 -6.60059,-2.39961 -9.60059,-3.09961 -3,-0.7 -6.00059,-1.70059 -6.60059,-2.10059 -1.19998,-1 -7.39972,-2.99941 -16.1997,-5.39941 -2.8,-0.8 -5.64903,-1.27529 -7.93653,-1.42529 -0.57187,-0.0375 -1.10903,-0.0543 -1.60107,-0.0513 z"
     style="display:inline"
     id="abdomen_front"
     inkscape:label="abdomen_front" />
  <path
     d="m 101.90781,104.1385 -7.500003,2.90039 c -24.09997,9.59999 -23.49951,9.29932 -22.99951,11.79932 0.4,2.5 0.49961,7.10041 0.0996,25.40039 -0.2,10.49999 -0.59942,12.79972 -3.89941,22.19971 -1.1,3.19999 -1.20059,5.90098 -0.60059,11.00097 0.4,3.7 0.7998,11.69933 0.7998,17.79932 0.1,10.89999 0.1004,11.10069 4.40039,19.70068 2.4,4.8 4.70059,8.99922 5.10059,9.19922 0.4,0.3 6.1002,-1.3998 12.7002,-3.7998 21.599973,-7.89999 27.198943,-9.20078 41.898923,-10.30078 9.39999,-0.7 14.40051,0.5003 34.00049,7.80029 2.7,1.1 5.69951,1.8999 6.49951,1.8999 0.9,0 3.30049,0.90098 5.50049,2.00098 2.1,1.1 4.2,1.6997 4.5,1.19971 1.2,-1.4 3.00029,-18.69972 3.30029,-31.19971 0.2,-10.89999 0.5001,-13.09981 2.6001,-17.29981 l 2.29982,-4.70068 -2.2002,-7.29932 c -1.3,-3.89999 -2.99941,-8.60117 -3.89941,-10.20117 -1.2,-2.3 -1.60069,-6.39952 -1.70069,-16.99951 -0.1,-7.69999 -0.3998,-14.90049 -0.7998,-16.00049 -0.5,-1.9 -8.69981,-6.49951 -11.29981,-6.49951 -0.7,0 -3.20049,-0.8999 -5.50049,-1.8999 -11.99998,-5.3 -11.9998,-5.29951 -15.7998,-3.49951 -1.9,0.99999 -5.4999,3.19912 -7.8999,5.09912 -3.9,2.89999 -5.09962,3.30029 -10.59961,3.30029 -3.4,0 -8.70079,-0.5001 -11.80078,-1.1001 -4.2,-0.9 -7.09942,-2.29932 -11.39942,-5.79931 z"
     id="chest_front"
     inkscape:label="chest_front" />
  <path
     d="m 149.90781,91.939282 0.79981,2.39942 c 0.5,1.4 0.60029,3.49922 0.30029,4.69922 -0.5,1.999978 -7.50002,7.099998 -16.5,11.999998 -3,1.69998 -4.09904,1.70019 -9.99902,0.70019 -7.5,-1.3 -11.60051,-3.5001 -16.00049,-8.6001 -3.1,-3.499978 -4.20059,-8.599408 -2.10059,-9.899408 0.6,-0.4 2.6,0.4999 4.5,1.8999 4.1,3.2 13.80002,5.600098 22.5,5.600098 6.3,0 6.70049,-0.20039 11.50049,-4.400388 z"
     style="display:inline"
     id="neck_front"
     inkscape:label="neck" />
  <path
     d="m 161.74961,52.288892 c -0.0875,-0.008 -0.17401,-0.004 -0.26074,0.0132 -0.19825,0.04 -0.39258,0.14941 -0.58008,0.33691 -0.6,0.5 -2.10098,1.09932 -3.50098,1.29932 -1.6,0.2 -2.6,1.10078 -3,2.80078 l -0.59912,2.49902 -26.20019,0.30029 c -22.29996,0.2 -26.2002,3e-4 -26.2002,-1.1997 0,-2.9 -2.700203,-4.3002 -6.700203,-3.7002 -3.50001,0.6 -3.79912,0.89942 -3.59912,3.89942 0.1,4.09998 4.39914,10.70058 8.09912,12.60058 2.300003,1.2 3.100103,2.6008 4.100103,7.30078 1,4.3 2.2003,6.49893 4.8003,8.89893 4.79998,4.39998 12.89912,8.30059 20.09912,9.60059 l 6.10107,1.10009 5.49902,-3.60058 c 6.7,-4.4 12.10069,-12.10041 13.70069,-19.40039 0.7,-3 1.80049,-5.29981 2.50049,-5.29981 0.7,0 2.89884,-1.69982 4.79882,-3.7998 2.7,-2.8 3.60059,-4.59932 3.60059,-7.29932 0,-3.28125 -1.34699,-6.22576 -2.65869,-6.3501 z"
     style="display:inline"
     id="face"
     inkscape:label="face" />
  <path
     d="m 126.5084,47.739092 c 17.79998,0 21.00039,0.19961 22.40039,1.59961 0.9,0.9 1.49931,2.79932 1.29931,4.29931 l -0.30029,2.6001 -21.19922,0.30029 c -18.19998,0.2 -21.30068,-3.9e-4 -22.70068,-1.40039 -1.6,-1.59999 -2.19941,-5.49873 -0.89941,-6.69873 0.3,-0.4 9.99991,-0.70019 21.3999,-0.70019 z"
     id="eyes"
     inkscape:label="eyes" />
  <path
     d="m 126.7457,6.2766883 c -6.46249,0.0875 -12.78779,1.062306 -16.23779,2.862305 -4.6,2.3999967 -10.699323,8.4997107 -13.299323,13.1997067 -4.49999,7.999992 -1.70009,30.899802 3.399913,27.799802 0.39999,-0.3 0.7998,-1.6 0.7998,-3 v -2.39941 h 25.8999 25.8999 l 0.60059,2.6001 c 0.5,1.89999 1.19893,2.49873 2.89893,2.19873 2.09999,-0.3 2.20019,-0.69933 2.20019,-11.79932 0,-6.299994 -0.3998,-12.799806 -0.7998,-14.299805 -1.1,-4.099996 -9.49981,-12.599709 -14.29981,-14.6997067 -3.99999,-1.749998 -10.6,-2.549902 -17.0625,-2.462402 z"
     id="skull"
     inkscape:label="skull" />
</svg>
