<?xml version="1.0" encoding="UTF-8" standalone="no"?>
<svg
   version="1.0"
   viewBox="0 0 251.3 570.48199"
   preserveAspectRatio="xMidYMid"
   id="human-armor-locations-back-svg"
   xmlns="http://www.w3.org/2000/svg"
   xmlns:svg="http://www.w3.org/2000/svg">
  <path
     d="m 55.172571,108.62072 c -0.6625,0.1375 -1.4378,0.66114 -2.7378,1.66114 -1.29999,1.1 -3.4999,2.20048 -4.8999,2.50048 -3.99999,1 -9.69961,7.40001 -12.09961,13.5 -2.4,6.3 -3.69951,22.7001 -1.99951,25.1001 0.6,0.9 3.6,1.8002 7.5,2.2002 3.5,0.3 8.29961,1.59932 10.59961,2.79931 2.2,1.1 4.3,2.10059 4.5,2.10059 0.3,0 0.49951,-1.69981 0.49951,-3.7998 0,-2 0.50049,-5.29971 1.00049,-7.19971 0.6,-1.9 1.3,-6.40049 1.5,-10.00049 0.2,-3.6 0.79932,-9.49971 1.29932,-13.19971 0.8,-6.89999 -0.49962,-13.3 -3.09961,-15 -0.85,-0.55 -1.4,-0.79961 -2.0625,-0.66211 z"
     id="shoulder_right_back"
     inkscape:label="shoulder_right_back" />
  <path
     d="m 36.935261,157.48205 c -2.89999,0 -3.19941,0.4002 -3.89941,3.7002 -0.3,2.09999 -1.5001,5.6999 -2.6001,7.8999 -2.2,4.69999 -5.00049,17.69971 -4.00049,19.19971 0.3,0.5 3.69962,1.2 7.59961,1.5 6,0.4 7.20108,0.90068 9.10108,3.20068 l 2.09912,2.69971 2.2998,-3.79981 c 1.2,-2.1 2.80098,-6.7001 3.50098,-10.1001 0.7,-3.39999 1.99892,-7.5999 2.89892,-9.3999 0.9,-1.8 1.60108,-3.90029 1.60108,-4.80029 -0.1,-2 -8.1003,-7.99922 -12.30029,-9.19922 -1.8,-0.5 -4.6003,-0.90088 -6.3003,-0.90088 z"
     id="upperArm_right_back"
     inkscape:label="upperArm_right_back" />
  <path
     d="m 32.509971,194.62024 c -1.475,-0.0375 -2.97403,0.21171 -4.37402,0.76171 -1.8,0.7 -4.60108,6.90118 -4.60108,10.20118 0,0.9 -0.7,2.19892 -1.5,2.89892 -2.8,2.3 -1.80019,7.30079 2.29981,11.80078 4.09999,4.4 5.90059,4.89961 11.10058,3.09961 2.4,-0.9 3.09961,-1.6998 3.09961,-3.7998 0,-1.5 1.10049,-6.00049 2.50049,-10.00049 l 2.50049,-7.29932 -2.29981,-2.80078 c -1.2,-1.6 -3.2,-3.29941 -4.5,-3.89941 -1.3,-0.6 -2.75107,-0.9249 -4.22607,-0.9624 z"
     id="elbow_right_back"
     inkscape:label="elbow_right_back" />
  <path
     d="m 18.535361,223.38244 -1.1001,2.80078 c -2.6,6.9 -1.99931,28.39983 1.70069,54.79981 1.19999,8.59999 1.99912,11.40019 3.59912,12.70019 2.29999,2 6.30078,2.39873 7.30078,0.69873 0.4,-0.6 1.1,-8.59971 1.5,-17.6997 0.7,-12.89999 1.4,-18.09923 3,-22.69922 2.8,-7.79999 5.09892,-20.20059 4.39892,-23.10059 -0.6,-2.2 -0.89951,-2.29922 -6.49951,-1.69922 -5.59999,0.6 -6.19942,0.3999 -9.89941,-2.60009 z"
     id="forearm_right_back"
     inkscape:label="forearm_right_back" />
  <path
     d="m 28.335161,299.58215 c -0.2,0.1 -1.8998,0.3998 -3.7998,0.7998 -3.4,0.6 -3.49971,0.7006 -4.19971,6.60059 -0.5,3.3 -1.90068,8.2003 -3.20068,10.80029 l -2.29981,4.8003 2.69971,2.6997 c 1.4,1.5 3.00029,3.8002 3.30029,5.2002 0.4,1.4 1.6001,3.59951 2.6001,4.99951 1.9,2.3 2.19981,2.4001 5.29981,1.1001 1.8,-0.7 4.59961,-1.59951 6.09961,-1.99951 l 2.90039,-0.60059 v -12.20068 c 0.1,-11.89999 2.9e-4,-12.39932 -2.69971,-16.29932 -1.6,-2.3 -3.59961,-4.50059 -4.59961,-5.10059 -1,-0.5 -1.90059,-0.7998 -2.10059,-0.7998 z"
     id="hand_right_back"
     inkscape:label="hand_right_back" />
  <path
     d="m 56.534871,522.54455 c -2.45,-0.0375 -4.8498,0.1376 -5.2998,0.5376 -0.3,0.4 -0.3,1.90098 0,3.50098 0.3,1.49999 0.20039,4.3999 -0.0996,6.3999 -0.6,3.29999 -0.9004,3.4999 -4.40039,3.3999 -3.7,-0.1 -10.6001,2.19903 -11.6001,3.99902 -0.9,1.5 4.00108,6.70059 7.60107,8.10059 1.8,0.8 5.20001,3.1002 7.5,5.2002 4.9,4.39999 5.29913,4.40029 11.09912,1.80029 3.7,-1.7 4.19971,-2.30059 4.19971,-5.10059 0,-1.8 -0.49971,-4.80059 -1.19971,-6.60058 -0.89999,-2.6 -0.89999,-4.59884 0,-9.29883 1.3,-6.1 0.59981,-9.3002 -2.20019,-11.2002 -0.65,-0.45 -3.1501,-0.70078 -5.6001,-0.73828 z"
     id="foot_right_back"
     inkscape:label="foot_right_back" />
  <path
     d="m 118.03487,527.48254 0.10108,12.7998 c 0.1,15.89999 -0.10049,14.69971 3.49951,16.19971 3.99999,1.7 9.8,5.8e-4 13.5,-3.89941 1.6,-1.7 4.30029,-3.20059 6.30029,-3.60059 7.29999,-1.2 11.99932,-4.49971 10.29932,-7.19971 -1.6,-2.29999 -10.10001,-6.30029 -13.5,-6.30029 -3.2,0 -3.7002,-0.29941 -3.7002,-2.39941 0,-1.4 -0.69961,-3.20049 -1.59961,-4.00049 -1.1,-1.1 -3.5002,-1.59961 -8.20019,-1.59961 z"
     id="foot_left_back"
     inkscape:label="foot_left_back" />
  <path
     d="m 123.65987,442.84387 c -1.70488,-0.21875 -2.78721,2.08819 -5.32471,10.13818 -2.19999,6.99999 -2.3996,8.80098 -1.5996,14.00098 1.09999,7.59999 2.5,14.30001 4.5,22.5 2.09999,8.29999 2.09999,15.59951 0,19.99951 -2.3,5 -4.09991,11.9002 -3.39991,12.7002 1.2,1.09999 10.6004,2.20039 13.40039,1.40039 2.6,-0.7 2.79932,-1.20079 4.29932,-10.30079 0.9,-5.59999 2.20068,-10.40048 3.20068,-11.50048 0.9,-1 1.99942,-3.19883 2.39942,-4.79883 0.4,-1.7 1.99951,-5.40088 3.49951,-8.40088 1.6,-3 2.90039,-6.39961 2.90039,-7.59961 0,-2.3 1.49961,-7.49952 3.09961,-10.99951 2.3,-5.1 2.80019,-21.90108 0.70019,-24.10108 -0.49999,-0.4 -1.90029,-0.20009 -3.30029,0.39991 -3.49999,1.59999 -6.80001,1.50126 -15,-0.69873 -3.79999,-1 -7.7001,-2.10049 -8.6001,-2.50049 -0.275,-0.125 -0.53134,-0.20752 -0.7749,-0.23877 z"
     id="shin_left_back"
     inkscape:label="shin_left_back" />
  <path
     d="m 49.335161,441.48303 c -2.79999,0 -5.30039,15.19952 -4.40039,27.49951 1.2,15.49998 2.40049,25.69952 4.00049,33.49951 0.8,4.1 1.49961,8.90069 1.59961,10.70069 0,4.69999 2.29991,6.4996 7.8999,6.0996 l 4.60108,-0.30029 0.59912,-10.5 c 0.5,-9.99999 2.3999,-16.89951 4.8999,-18.49951 0.5,-0.3 1.00049,-1.50049 1.00049,-2.50049 0,-1.1 0.60039,-3.4002 1.40039,-5.20019 5.3,-12.69999 5.79971,-14.69943 5.69971,-24.89942 -0.1,-12.89998 -0.69961,-15.1999 -3.09961,-13.8999 -3,1.6 -19.19991,1.20049 -21.3999,-0.49951 -1.1,-0.8 -2.30079,-1.5 -2.80079,-1.5 z"
     id="shin_right_back"
     inkscape:label="shin_right_back" />
  <path
     d="m 115.62081,191.72131 c -0.67969,0.0609 -1.16074,0.21143 -1.38574,0.46143 -0.5,0.39998 -3.59903,1.2999 -6.99903,1.8999 -3.39998,0.6 -7.500679,1.60019 -9.200679,2.20019 -23.39996,7.99998 -26.79971,9.19932 -28.19971,10.29932 -0.9,0.8 -1.30078,4.00031 -1.30078,10.80029 -0.1,6.4 -0.5,10.39961 -1.5,12.09961 -0.9,1.5 -1.4,5.4001 -1.5,10.1001 0,7.49998 -0.99961,11.40002 -6.09961,22.5 -1.1,2.3 -1.8999,6.30031 -1.8999,9.30029 0,2.9 -0.5001,9.40051 -1.1001,14.50049 -0.7,5.1 -0.89951,10.49893 -0.49951,11.89893 0.7,2.89998 0.49992,2.80107 12.3999,4.60107 4,0.6 8.29953,1.69902 9.49951,2.49902 1.2,0.8 4.00069,1.70059 6.20069,2.10059 2.1,0.4 5.1998,1.79961 6.7998,3.09961 1.6,1.3 3.29942,2.40088 3.89942,2.40088 0.5,0 3.00049,1.4 5.500489,3 8.49998,5.69998 10.3,6.09941 18,3.89941 3.69998,-1.1 9.19962,-3.0001 12.0996,-4.1001 5.2,-1.99998 11.99954,-3.10039 27.49952,-4.40039 10.29998,-0.9 10.50078,-1.29875 8.80078,-17.19873 -0.6,-6.39998 -1.39961,-14.90127 -1.59961,-18.80127 -0.2,-3.89998 -1.10098,-9.69902 -2.00098,-12.99902 -3.69998,-12.99998 -6.00008,-41.50061 -4.1001,-51.60059 0.8,-4.59998 0.70049,-4.80039 -1.99951,-5.90039 -1.6,-0.6 -3.7999,-1.59873 -4.8999,-2.19873 -1.1,-0.6 -3.60049,-1.40029 -5.50049,-1.80029 -1.9,-0.4 -6.6,-1.8999 -10.5,-3.3999 -3.79998,-1.5 -8.6,-3.1002 -10.5,-3.7002 -4.04998,-1.125 -7.875,-1.74433 -9.91406,-1.56152 z"
     style="display:inline"
     id="abdomen_back"
     inkscape:label="abdomen_back" />
  <path
     d="m 74.335651,399.58264 c 0.7,-0.1 3.40001,0.9998 6,2.2998 8.09999,4.1 9.69951,5.8004 9.49951,10.40039 -0.1,2.5 -1.30039,5.69942 -2.90039,8.39942 -1.49999,2.39999 -3.89873,6.30078 -5.19873,8.80078 -2.99999,5.69999 -3.5,6.09893 -10.5,8.89892 -7.29999,2.9 -9.40137,2.9 -15.40136,0 -5.5,-2.69999 -5.89912,-4.79902 -2.09912,-9.99902 1.89999,-2.5 2.40009,-4.6004 2.60009,-11.90039 l 0.39991,-8.79932 4.99951,-3.20068 c 4.49999,-2.9 8.80059,-4.5999 12.60058,-4.8999 z"
     id="knee_right_back"
     inkscape:label="knee_right_back" />
  <path
     d="m 135.63497,399.58264 c 0.4,-0.1 3.10108,0.9998 6.10107,2.2998 3.1,1.4 6.49922,3.7002 7.69922,5.2002 2,2.6 2.09961,3.49932 1.59961,11.79931 -0.4,5.1 -0.1997,11.0004 0.30029,13.40039 1,4.1 0.89971,4.29971 -1.80029,5.69971 -1.5,0.8 -2.99883,2.1 -3.29883,3 -0.9,2.2 -7.80098,1.8998 -14.00097,-0.70019 -7.6,-3.1 -8.5,-4.19962 -9,-10.59961 -0.2,-3.1 -1.2002,-8.79913 -2.2002,-12.59912 -1.7,-6.8 -1.70009,-6.80001 0.3999,-9 1.9,-1.9 12.7002,-8.40049 14.2002,-8.50049 z"
     id="knee_left_back"
     inkscape:label="knee_left_back" />
  <path
     d="m 58.739461,305.9674 c -1.14843,0.0469 -2.10371,0.21563 -2.80371,0.51563 -2,0.8 -2.30039,1.9002 -2.90039,11.20019 -0.9,13.39999 -0.0996,53.09963 1.40039,67.59961 1.2,12.29999 2.39961,16.0002 4.59961,14.2002 1.6,-1.3 11.69991,-4.00049 15.3999,-4.00049 4.4,0 12.6001,2.79951 14.6001,4.99951 1,1.1 2.10049,2.00098 2.50049,2.00098 1.3,0 2.19912,-5.30069 2.09912,-12.20069 -0.1,-4.69999 0.50098,-8.2 2.00098,-12 2.79999,-6.99999 4.699999,-14.29913 5.999999,-23.09912 0.5,-3.99999 1.79931,-9.20117 2.79931,-11.70117 2.5,-6.09999 3.60059,-14.2999 2.10059,-16.8999 -0.6,-1.2 -4.1003,-3.59903 -7.800289,-5.49902 -3.7,-1.9 -8.50069,-4.60069 -10.70069,-6.20069 -2.2,-1.5 -5.29902,-3.09951 -6.99902,-3.49951 -1.6,-0.4 -5.50049,-1.70078 -8.50049,-2.80078 -5.17499,-1.8 -10.35059,-2.75537 -13.7959,-2.61475 z"
     style="display:inline"
     id="thigh_right_back"
     inkscape:label="thigh_right_back" />
  <path
     d="m 156.91036,314.58215 c -3.05,0.1 -6.32451,0.45049 -8.37451,1.00049 -7.59999,2 -11.4999,3.3001 -12.3999,4.1001 -0.6,0.39999 -2.5004,0.7998 -4.40039,0.7998 -3.3,0 -6.60021,1.1003 -14.2002,4.80029 l -3.49951,1.69922 -0.30029,7.8999 c -0.2,4.4 0.39931,13.40099 1.29931,20.00098 0.9,6.69999 2.20078,19.6003 2.80078,28.80029 0.7,9.09999 1.49991,16.99942 1.89991,17.39942 0.39999,0.3 1.99951,-0.19971 3.49951,-1.19971 6.19999,-4.2 16.09961,-5.6 21.09961,-3 1.49999,0.7 3.70097,1.69951 5.00097,1.99951 1.9,0.6 2.2002,0.4001 2.2002,-1.8999 0,-1.4 0.39902,-3.5 0.99902,-4.5 0.5,-1 1.7001,-4.50069 2.6001,-7.70068 0.9,-3.2 1.90088,-7.19932 2.40088,-8.79932 3.1,-10.99999 4.2,-17.00041 6,-32.90039 2.5,-21.99998 2.5999,-27.19902 0.3999,-27.99902 -1.15,-0.45 -3.97539,-0.60098 -7.02539,-0.50098 z"
     style="display:inline"
     id="thigh_left_back"
     inkscape:label="thigh_left_back" />
  <path
     d="m 191.23604,200.58215 3.89942,1.5 c 3.39998,1.3 4.39922,2.5007 7.69922,9.20068 5.29998,11.09998 5.50136,12.59932 1.90136,16.29932 -3.49998,3.6 -6.50011,4.5001 -13.10009,4.1001 -5.6,-0.4 -5.50118,-0.39991 -7.20118,-9.39991 -2.29998,-12.79996 -2.3991,-11.89951 2.40088,-16.99951 z"
     style="display:inline"
     id="elbow_left_back"
     inkscape:label="elbow_left_back" />
  <path
     d="m 186.98067,159.57824 c -0.283,-0.0127 -0.59482,-0.008 -0.94482,0.004 -3.3,0.1 -5.90119,0.99982 -14.70117,5.2998 -3.2,1.5 -5.79932,3.2002 -5.79932,3.7002 0,0.6 0.69961,2.39972 1.59961,4.1997 0.9,1.7 2.3,5.70079 3,8.80079 0.7,3.09998 2.50088,7.79892 3.90088,10.39892 1.4,2.6 2.49902,5.7002 2.49902,6.7002 0,2.59998 1.80031,5.80078 3.30029,5.80078 0.7,0 2.10002,-1.3 3,-3 2.6,-4.4 5.1004,-5.30108 11.9004,-4.60108 l 5.79931,0.60099 -1.99951,-4.00049 c -1.1,-2.1 -1.99951,-4.79933 -1.99951,-5.79931 0,-1.1 -0.7,-3.60049 -1.5,-5.50049 -0.8,-2 -1.5,-5.09942 -1.5,-6.89942 0,-1.8 -1.0002,-6.1006 -2.2002,-9.60058 -1.83749,-5.075 -2.37396,-6.01521 -4.35498,-6.10401 z"
     style="display:inline"
     id="upperArm_left_back"
     inkscape:label="upperArm_left_back" />
  <path
     d="m 197.89815,294.46984 c -2.83749,-0.0375 -5.5623,0.3629 -5.8623,1.2129 -0.2,0.69999 -0.9,3.70019 -1.5,6.70019 -0.6,3 -1.50059,6.0002 -2.10059,6.7002 -0.6,0.7 -0.59961,2.09951 -0.0996,3.49951 2.2,5.69999 3.19922,9.79941 3.19922,12.89941 0,6.7 1.9002,1.49999 2.2002,-6 l 0.30029,-7.5 h 4.00049 3.99902 l 0.30029,10.40039 c 0.2,8.39999 6.9e-4,10.69961 -1.29931,12.09961 -0.9,1 -1.2002,2.10088 -0.7002,2.40088 0.5,0.3 1.5002,-0.10088 2.2002,-0.90088 0.7,-0.8 0.8999,-1.5 0.3999,-1.5 -0.5,0 0.29922,-0.79883 1.69922,-1.79883 7.79998,-5.19999 8.90038,-6.80059 8.90038,-12.60058 0,-3.1 -0.59932,-5.99981 -1.29932,-6.79981 -2.49999,-2.59999 -5.4,-8.40068 -6,-12.20068 -0.3,-2.1 -1.10029,-4.4002 -1.80029,-5.2002 -0.75,-0.9 -3.7001,-1.37461 -6.5376,-1.41211 z"
     id="hand_left_back"
     inkscape:label="hand_left_back" />
  <path
     d="m 209.03536,231.78186 -2.79932,2.10058 c -2.29999,1.7 -4.60039,2.20049 -11.90039,2.50049 -10.19999,0.4 -9.4999,-0.80106 -6.3999,10.39893 0.9,3.19999 1.59961,7.00049 1.59961,8.50048 0,1.5 0.7,5.9002 1.5,9.7002 0.8,3.9 1.5,10.49971 1.5,14.69971 0,5.59999 0.39961,8.10068 1.59961,9.20068 1.9,1.9 9.70059,2.20029 11.10059,0.30029 0.59999,-0.6 1.29921,-4.10068 1.69921,-7.70068 0.3,-3.6 1.30098,-9.7 2.00098,-13.5 0.8,-3.9 1.59922,-12.60001 1.69922,-19.5 0,-6.89999 -0.3002,-13.5001 -0.7002,-14.6001 z"
     id="forearm_left_back"
     inkscape:label="forearm_left_back" />
  <path
     d="m 165.60274,112.52453 c -0.58593,0.0891 -1.0417,0.30772 -1.3667,0.65772 -1.4,1.4 -0.70058,18.2999 0.89942,21.3999 2.69999,5.39999 5.39941,15.00108 5.39941,19.60107 0,3.9 0.2003,4.39981 1.80029,3.79981 0.9,-0.5 5.10069,-1.20069 9.20069,-1.70069 10.89999,-1.19999 10.40019,-0.69913 9.70019,-9.59912 -0.3,-5.59999 -1.40058,-9.90069 -3.60058,-15.20068 -4.2,-9.79999 -6.80079,-12.99932 -13.30078,-16.29932 -4.05,-2.02499 -6.97413,-2.92588 -8.73194,-2.65869 z"
     id="shoulder_left_back"
     inkscape:label="shoulder_left_back" />
  <path
     d="m 91.021691,98.678832 c -1.05469,-0.29063 -3.36182,0.40342 -8.98682,2.503418 -3.79999,1.4 -8.7999,3.20049 -10.8999,4.00049 -7.09999,2.59999 -7.79951,3.10049 -6.49951,5.50048 0.8,1.4 0.8999,4.99874 0.3999,11.19873 -0.4,5 -0.70059,11.9003 -0.60059,15.3003 0.1,3.39999 -0.29941,6.3998 -0.89941,6.7998 -0.5,0.3 -1.00049,1.60039 -1.00049,2.90039 0,1.2 -0.5001,2.7003 -1.1001,3.3003 -1.19999,1.19999 -1.29873,3.39982 -0.69873,21.7998 0.4,10.99999 0.69913,12.59981 3.59912,18.7998 1.8,3.7 3.20069,7.09961 3.20069,7.59961 0,2.3 2.59932,2.20078 8.79931,-0.19921 20.29998,-7.8 30.800699,-9.99991 45.200689,-9.39991 8.99999,0.4 11.39952,0.89991 16.99951,3.39991 3.6,1.59999 8.3,3.30019 10.5,3.70019 2.2,0.4 5.39971,1.39981 7.19971,2.29981 1.8,0.99999 3.50088,1.40009 3.90088,1.10009 0.3,-0.4 0.89931,-8.9005 1.29931,-19.00049 0.6,-16.49998 0.9,-18.69922 3,-22.69921 2.2,-4.2 2.19942,-4.70001 0.89942,-7.5 -4.6,-9.49999 -5.69864,-14.0006 -5.59864,-24.60059 0.1,-15.09998 -0.3,-16.50059 -6,-18.60059 -2.59999,-0.9 -7.70049,-2.9 -11.50048,-4.5 -3.7,-1.59999 -7.30059,-2.898918 -8.10059,-2.898918 -0.7,0 -3.99971,1.799018 -7.19971,3.999018 -5.29999,3.6 -6.49922,4.00049 -12.19922,4.00049 -8.29999,0 -14.901169,-1.7003 -19.201169,-4.80029 -1.9,-1.5 -3.5998,-2.999908 -3.7998,-3.399908 -0.15,-0.3 -0.36182,-0.50664 -0.71338,-0.60351 z"
     id="chest_back"
     inkscape:label="chest_back" />
  <path
     d="m 95.473351,88.608032 c -0.5625,-0.15 -0.9374,0.1249 -1.3374,0.7749 -1.9,3 5.999899,11.300098 12.399899,13.100098 5.39999,1.5 10.5001,1.20019 13.1001,-0.79981 1.29999,-1 4.49971,-3.101068 7.1997,-4.601068 4.6,-2.6 5.19922,-3.49912 4.69922,-6.59912 -0.3,-2.3 -0.6001,-2.30058 -4.1001,0.89941 -2.99999,2.8 -3.99951,3.09961 -9.49951,3.09961 -8.29999,0 -17.49951,-1.9001 -19.999509,-4.1001 -1.15,-1.04999 -1.8999,-1.62392 -2.4624,-1.77392 z"
     id="neck_back"
     inkscape:label="neck_back" />
  <path
     d="m 112.51534,12.922482 c -1.17969,-0.0156 -2.20449,0.0347 -2.97949,0.15967 -1.4,0.2 -4.4002,0.70049 -6.7002,1.00049 -5.099989,0.6 -12.799799,6.49961 -15.799799,12.09961 -1.7,3.29999 -2.00069,5.3005 -1.70069,16.00049 0.2,11.79998 0.0997,12.30029 -1.80029,12.30029 -1.1,0 -2.3001,0.7 -2.6001,1.5 -0.9,2.1 3.60118,9.29902 7.20118,11.49902 2.39999,1.6 3.29873,2.9004 3.69873,5.90039 0.7,5.8 4.00108,9.40001 12.101069,13.5 7.69999,3.8 13.3002,4.5998 17.2002,2.29981 3.49999,-2 7.39892,-5.39991 7.39892,-6.39991 0,-0.59999 0.89991,-1.7997 1.8999,-2.6997 1.1,-1 2.7002,-4.40069 3.7002,-7.70069 1,-3.19999 2.10049,-5.89892 2.50049,-5.89892 1.5,0 6.89941,-6.49981 6.89941,-8.29981 0,-2.99999 -1.89971,-5.70117 -4.19971,-5.70117 -1.69999,0 -1.8997,-0.3998 -1.1997,-2.2998 1.4,-3.7 0.8998,-20.9004 -0.7002,-23.90039 -2.69999,-5 -8.8002,-10.69971 -12.70019,-11.69971 -3.75,-0.975 -8.68067,-1.61279 -12.21973,-1.65967 z"
     id="head_back"
     inkscape:label="head_back" />
</svg>
